Patient4_TMGait_0pt7_01_right_37_EMG.mot
version=1
nRows=16
nColumns=33
inDegrees=no
endheader
time	1LAddLong	2LGlutMax	3LGlutMed	4LIliopsoas	5LSemiMemb	6LBicFemLong	7LRecFem	8LVastMed	9LVastLat	10LGasMed	11LTibAnt	12lTibPost	13LPeroneusLong	14LSol	15LExtDigLong	16LFlexDigLong	17RAddLong	18RGlutMax	19RGlutMed	20RIliopsoas	21RSemiMemb	22RBicFemLong	23RRecFem	24RVastMed	25RVastLat	26RGasMed	27RTibAnt	28RTibPost	29RPeroneusLong	30RSol	31RExtDigLong	32RFlexDigLong
42.21	-0.002747	-0.32944	-0.02533	0.000916	0.045013	0.011292	0.057526	-0.006714	-0.16724	-0.16129	0.012665	-0.00473	-0.40787	0.11887	-0.029297	-0.013428	-0.012817	-0.10925	-0.18601	-0.056	-0.06546	0.18494	0.15945	-0.15991	-0.046844	0.01358	-0.23605	0.015564	0.14282	-0.29007	-0.00824	-0.007172
42.211	-0.002594	-0.28717	0.066223	0.000305	0.025024	-0.099792	0.001373	-0.004272	-0.15976	0.079193	-0.022125	-0.011292	0.12482	0.22995	0.11276	-0.021667	-0.010834	-0.06012	-0.37659	-0.039978	-0.056152	0.1828	0.014801	-0.21072	-0.042267	0.011292	0.088806	0.015259	0.18448	-0.19867	-0.001373	-0.006256
42.212	0.00946	-0.33371	0.092163	-0.016022	0.019531	-0.4834	-0.009155	-0.00412	-0.17212	0.19531	-0.002594	-0.011597	0.18646	0.56473	-0.21698	-0.013123	-0.041809	-0.085297	-0.075378	0.002136	-0.005646	0.20813	-0.089111	-0.18234	-0.027924	0.000153	-0.043182	0.024261	0.17975	-0.021667	-0.002136	-0.009155
42.213	0.00351	-0.3183	0.084076	0.000458	-0.041504	-0.96619	-0.08316	0.003204	-0.11505	-0.033112	0.020447	-0.014954	-0.2417	0.75028	-0.13092	-0.019989	-0.054321	-0.085602	0.01358	0.014648	0.035706	0.19547	-0.30197	-0.22751	-0.055084	-0.010376	-0.87311	0.011749	0.016937	-0.004883	-0.002899	0.000458
42.214	0.014648	-0.30807	0.079651	0.019531	-0.057983	-0.8873	0.00473	-0.010529	0.089417	0.16556	0.034332	-0.00824	-0.31082	0.43762	0.002441	-0.034027	-0.10117	-0.075073	-0.059052	0.001984	-0.009003	0.18448	-0.69061	-0.15778	-0.06073	-0.004425	-0.86334	0.010986	-0.062714	-0.029602	0.000153	-0.001068
42.215	0.019684	-0.31418	-0.070343	0.002441	0.007629	-0.52643	0.10361	-0.008392	0.022583	0.88943	0.066376	0.009155	-0.029602	0.02533	-0.18539	-0.027008	-0.14557	0.003967	-0.3627	0.010376	-0.024261	0.15289	-0.50629	0.016327	-0.043335	-0.000763	-0.22446	0.007172	0.032654	-0.004578	0.00061	-0.00061
42.216	0.016632	-0.29007	-0.070648	0.016174	0.072632	-0.32654	0.022278	0.005035	-0.046539	0.61996	0.21927	0.005035	0.10117	-0.00824	-0.19516	-0.015869	-0.11078	0.076447	-0.28137	0.029755	-0.032043	0.13062	-0.40817	0.037842	-0.017242	0.004578	0.39856	0.003967	0.21545	-0.010681	0.000916	-0.000916
42.217	0.019073	-0.28198	-0.10895	0.007477	0.11063	-0.22675	0.022736	-0.004425	0.019989	-0.12741	0.15533	-0.009613	0.70541	0.081329	-0.21332	-0.015869	0.002747	0.040283	-0.19989	0.022278	-0.006714	0.15152	-0.2385	0.11093	0.006256	0.006409	0.008698	0.009155	0.44403	-0.044403	-0.002136	0.003357
42.218	0.015411	-0.25665	-0.054169	-0.014801	0.11627	-0.21423	0.10635	-0.005035	-0.013885	-0.46783	0.1564	-0.001373	0.33707	0.14374	-0.066681	-0.023804	0.054169	0.025635	-0.33096	-0.015717	0.02533	0.16022	0.04715	0.14557	-0.005188	0.002594	-0.48019	0.005951	0.66071	0.020447	0.00061	-0.001831
42.219	0.01709	-0.24628	-0.009003	-0.009766	0.089417	-0.059052	0.12405	-0.011292	-0.041504	-0.23086	-0.14542	0.0177	-0.54901	0.14923	0.22919	-0.012512	0.12817	-0.006256	-0.48782	-0.005646	0.054474	0.16586	0.2475	0.081024	-0.002136	-0.007935	-0.61066	0.00473	0.068817	0.12161	-0.007477	0.002747
42.22	0.008545	-0.20981	0.00885	0.001221	0.039825	0.1564	0.037079	-0.001984	-0.025635	-0.36697	-0.11353	0.019836	-0.36987	-0.02243	0.14023	-0.005035	0.1062	-0.027313	-0.56076	0.034027	0.086365	0.20126	0.457	0.12054	-0.027771	-0.004578	-0.45334	0.003204	-0.37918	0.14984	-0.005951	-0.000305
42.221	0.012817	-0.14267	0.015717	0.003204	0.041504	0.02121	-0.080414	-0.014648	0.068665	-0.34851	-0.05661	0.01297	0.29587	-0.087585	0.071259	-0.005493	0.029602	0.011749	-0.47028	0.040588	0.072937	0.22614	0.77225	0.20538	-0.023193	-0.005493	-0.29327	0.003967	-0.091858	0.15366	-0.002441	-0.004425
42.222	0.002899	-0.12238	0.095673	0.002747	0.032959	0.009155	-0.022736	-0.025635	0.10941	-0.24323	-0.016327	0.001068	0.10651	0.064545	-0.00885	-0.001984	-0.046234	0.024109	-0.4512	0.001984	0.023041	0.26443	0.92712	0.27618	0.040436	0.001984	-0.11643	0.001831	0.022125	0.14862	-0.001831	-0.00061
42.223	-0.008392	-0.11276	0.077209	0.003815	-0.00351	0.027924	0.11169	-0.013885	-0.011902	0.019379	0.006104	-0.005035	0.057678	0.00061	-0.01297	-0.016479	-0.082703	0.027008	-0.5246	-0.030365	-0.019836	0.27481	0.87494	0.21896	0.077362	0.00351	0.18219	-0.002899	0.028076	0.024567	-0.001526	0.000458
42.224	0.003967	-0.066986	-0.015564	-0.020599	-0.018921	-0.007172	0.063324	-0.011749	-0.00351	0.30121	0.036774	0.001526	0.020447	-0.01236	0.16754	-0.025482	-0.05249	-0.045624	-0.634	-0.1384	-0.050964	0.22247	0.68893	0.14252	0.056458	-0.011902	0.21561	-0.000153	-0.080719	-0.023956	-0.003357	0.000153
42.225	0.005188	-0.055237	-0.14374	0.002747	-0.014648	-0.042725	0.026703	-0.014038	-0.059509	-0.050507	-0.017853	0.027008	0.74692	-0.1474	0.24323	-0.07782	-0.028992	-0.040588	-0.79147	-0.27741	-0.068054	0.19409	0.52872	0.04425	0.009003	-0.020447	0.27191	-0.002899	-0.18204	-0.002289	-0.002899	0.000458
